<svg xmlns="http://www.w3.org/2000/svg" width="18.578" height="20.622" viewBox="0 0 18.578 20.622">
  <g id="Grupo_10583" data-name="Grupo 10583" transform="translate(-14 -10.991)">
    <g id="Elipse_278" data-name="Elipse 278" transform="translate(14 11)" fill="none" stroke="#75c3b5" stroke-linecap="round" stroke-width="1">
      <ellipse cx="4.5" cy="7" rx="4.5" ry="7" stroke="none"/>
      <ellipse cx="4.5" cy="7" rx="4" ry="6.5" fill="none"/>
    </g>
    <g id="Elipse_277" data-name="Elipse 277" transform="translate(17 15)" fill="#fff" stroke="#75c3b5" stroke-linecap="round" stroke-width="1">
      <ellipse cx="1.5" cy="3" rx="1.5" ry="3" stroke="none"/>
      <ellipse cx="1.5" cy="3" rx="1" ry="2.5" fill="none"/>
    </g>
    <path id="Caminho_4262" data-name="Caminho 4262" d="M18.536,11.493l10.7.057a3.421,3.421,0,0,1,1.994.956,4.854,4.854,0,0,1,.836,2.331v14.4a2.722,2.722,0,0,1-.216,1.3,1.08,1.08,0,0,1-.887.4L29.719,29.9l-1.27,1.04L27.39,29.9l-1.325,1.04L25.059,29.9l-1.41,1.04a2.043,2.043,0,0,1-1.144-.4,1.622,1.622,0,0,1-.344-1.067V20.561" fill="none" stroke="#75c3b5" stroke-linecap="round" stroke-width="1"/>
    <g id="Retângulo_1022" data-name="Retângulo 1022" transform="translate(24 21)" fill="#fff" stroke="#75c3b5" stroke-linecap="round" stroke-width="1">
      <rect width="2" height="1" rx="0.5" stroke="none"/>
      <rect x="0.5" y="0.5" width="1" fill="none"/>
    </g>
    <g id="Retângulo_1023" data-name="Retângulo 1023" transform="translate(27 21)" fill="#fff" stroke="#75c3b5" stroke-linecap="round" stroke-width="1">
      <rect width="2" height="1" rx="0.5" stroke="none"/>
      <rect x="0.5" y="0.5" width="1" fill="none"/>
    </g>
    <g id="Retângulo_1024" data-name="Retângulo 1024" transform="translate(30 21)" fill="#fff" stroke="#75c3b5" stroke-linecap="round" stroke-width="1">
      <rect width="2" height="1" rx="0.5" stroke="none"/>
      <rect x="0.5" y="0.5" width="1" fill="none"/>
    </g>
  </g>
</svg>
