<svg xmlns="http://www.w3.org/2000/svg" xmlns:xlink="http://www.w3.org/1999/xlink" width="48" height="48" viewBox="0 0 48 48">
  <defs>
    <filter id="Caminho_4051" x="5.79" y="23.7" width="23.231" height="21.167" filterUnits="userSpaceOnUse">
      <feOffset dy="1" input="SourceAlpha"/>
      <feGaussianBlur stdDeviation="0.5" result="blur"/>
      <feFlood flood-opacity="0.161"/>
      <feComposite operator="in" in2="blur"/>
      <feComposite in="SourceGraphic"/>
    </filter>
    <filter id="Caminho_4059" x="28.068" y="5.525" width="14.274" height="38.93" filterUnits="userSpaceOnUse">
      <feOffset dy="1" input="SourceAlpha"/>
      <feGaussianBlur stdDeviation="0.5" result="blur-2"/>
      <feFlood flood-opacity="0.161"/>
      <feComposite operator="in" in2="blur-2"/>
      <feComposite in="SourceGraphic"/>
    </filter>
    <clipPath id="clip-Prancheta_8">
      <rect width="48" height="48"/>
    </clipPath>
  </defs>
  <g id="Prancheta_8" data-name="Prancheta – 8" clip-path="url(#clip-Prancheta_8)">
    <g id="Grupo_12557" data-name="Grupo 12557" transform="translate(8.05 6.775)">
      <g transform="matrix(1, 0, 0, 1, -8.05, -6.78)" filter="url(#Caminho_4051)">
        <path id="Caminho_4051-2" data-name="Caminho 4051" d="M34.084,39.244c-4.665.247-7.765.353-8.952,4.012s1.49,8.487,4.071,10.86,5.231,1.875,7.936,1.551,7.957-9.208,5.914-12.774S38.749,39,34.084,39.244Z" transform="translate(-16.79 -14.24)" fill="#fc6f4f" stroke="#fff" stroke-linecap="round" stroke-linejoin="round" stroke-width="1.5"/>
      </g>
      <g transform="matrix(1, 0, 0, 1, -8.05, -6.78)" filter="url(#Caminho_4059)">
        <path id="Caminho_4059-2" data-name="Caminho 4059" d="M883.432,240.435h8.054s2.083-18.618-.834-24.215A16.513,16.513,0,0,1,888.713,206H886.57a15.48,15.48,0,0,1-2.431,10.215C881.389,220.111,883.432,240.435,883.432,240.435Z" transform="translate(-852.26 -199.23)" fill="#fc6f4f" stroke="#fff" stroke-linecap="round" stroke-linejoin="round" stroke-width="1.5"/>
      </g>
      <path id="Caminho_4060" data-name="Caminho 4060" d="M.009,6.056A17.169,17.169,0,0,1,.279,2.339,5.343,5.343,0,0,1,1.431,0" transform="translate(5.942 22.62) rotate(-109)" fill="none" stroke="#fff" stroke-linecap="round" stroke-linejoin="round" stroke-width="1"/>
      <path id="Caminho_4061" data-name="Caminho 4061" d="M.009,5.624A14.828,14.828,0,0,1,.279,2.172,4.862,4.862,0,0,1,1.431,0" transform="translate(9.6 15.512) rotate(11)" fill="none" stroke="#fff" stroke-linecap="round" stroke-linejoin="round" stroke-width="1"/>
    </g>
  </g>
</svg>
