<svg xmlns="http://www.w3.org/2000/svg" xmlns:xlink="http://www.w3.org/1999/xlink" width="152.871" height="153.121" viewBox="0 0 152.871 153.121">
  <defs>
    <filter id="Caminho_4125" x="0" y="0" width="152.871" height="153.121" filterUnits="userSpaceOnUse">
      <feOffset dy="3" input="SourceAlpha"/>
      <feGaussianBlur stdDeviation="3" result="blur"/>
      <feFlood flood-opacity="0.161"/>
      <feComposite operator="in" in2="blur"/>
      <feComposite in="SourceGraphic"/>
    </filter>
  </defs>
  <g id="Grupo_10420" data-name="Grupo 10420" transform="translate(9 6)">
    <g transform="matrix(1, 0, 0, 1, -9, -6)" filter="url(#Caminho_4125)">
      <path id="Caminho_4125-2" data-name="Caminho 4125" d="M20.178,0h94.516a20.2,20.2,0,0,1,20.178,20.215v94.691a20.2,20.2,0,0,1-20.178,20.215H20.178A20.2,20.2,0,0,1,0,114.906V20.215A20.2,20.2,0,0,1,20.178,0Z" transform="translate(9 6)" fill="#fc6f4f"/>
    </g>
    <g id="Grupo_10155" data-name="Grupo 10155" transform="translate(37.696 18.304)">
      <path id="Caminho_4051" data-name="Caminho 4051" d="M42.28,39.3c-8.8.466-14.652.667-16.891,7.569S28.2,62.883,33.07,67.361s11.822,1.677,16.239,1.8S63.058,52.912,59.2,46.183,51.082,38.834,42.28,39.3Z" transform="translate(-24.842 -4.912)" fill="none" stroke="#fff" stroke-linecap="round" stroke-linejoin="round" stroke-width="2"/>
      <path id="Caminho_4059" data-name="Caminho 4059" d="M884.08,270.969h15.2s3.931-35.129-1.574-45.691S894.044,206,894.044,206H890c.432,2.742.6,11.931-4.588,19.274S884.08,270.969,884.08,270.969Z" transform="translate(-840.447 -206.005)" fill="none" stroke="#fff" stroke-linecap="round" stroke-linejoin="round" stroke-width="2"/>
      <path id="Caminho_4060" data-name="Caminho 4060" d="M.017,11.427A32.4,32.4,0,0,1,.527,4.413,10.081,10.081,0,0,1,2.7,0" transform="translate(11.212 42.68) rotate(-109)" fill="none" stroke="#fff" stroke-linecap="round" stroke-linejoin="round" stroke-width="2"/>
      <path id="Caminho_4061" data-name="Caminho 4061" d="M.017,10.612A27.979,27.979,0,0,1,.527,4.1,9.175,9.175,0,0,1,2.7,0" transform="translate(18.114 29.269) rotate(11)" fill="none" stroke="#fff" stroke-linecap="round" stroke-linejoin="round" stroke-width="2"/>
    </g>
    <text id="Alimentação" transform="translate(24.291 115.428)" fill="#fff" font-size="16" font-family="SFCompactDisplay-Regular, SF Compact Display"><tspan x="0" y="0">Alimentação</tspan></text>
  </g>
</svg>
