<svg xmlns="http://www.w3.org/2000/svg" width="18.526" height="20.33" viewBox="0 0 18.526 20.33">
  <g id="Grupo_10595" data-name="Grupo 10595" transform="translate(-120.855 8.5)">
    <g id="Grupo_10586" data-name="Grupo 10586" transform="translate(121.358 -3.675)">
      <path id="Caminho_4265" data-name="Caminho 4265" d="M95.639-3.767s-.9,7.543-2.555,5.727-4.1-7.174-3.679-11.02c.537-4.551,4.418-3.11,6.437-2.268a14.531,14.531,0,0,1,1.889.761,6.7,6.7,0,0,0,2.275.527" transform="translate(-89.358 12.485)" fill="none" stroke="#75c3b5" stroke-linecap="round" stroke-width="1"/>
      <path id="Caminho_4266" data-name="Caminho 4266" d="M88.754-3.736s1.057-.352,1.133.22c.179,1.378,1.164,7.022,2.568,5.477,1.65-1.816,4.1-7.175,3.679-11.021-.7-5.958-6.956-2.186-6.956-2.186" transform="translate(-82.5 12.486)" fill="none" stroke="#75c3b5" stroke-width="1"/>
    </g>
    <g id="Retângulo_1027" data-name="Retângulo 1027" transform="translate(139.381 -8.5) rotate(90)" fill="#fff" stroke="#75c3b5" stroke-width="1">
      <rect width="20.33" height="2" rx="1" stroke="none"/>
      <rect x="0.5" y="0.5" width="19.33" height="1" rx="0.5" fill="none"/>
    </g>
    <g id="Caminho_4267" data-name="Caminho 4267" transform="translate(138.534 -8.5) rotate(90)" fill="#75c3b5">
      <path d="M 4.000002384185791 1.652835965156555 L 1.000002384185791 1.652835965156555 C 0.724302351474762 1.652835965156555 0.500002384185791 1.428536057472229 0.500002384185791 1.152835965156555 L 0.500002384185791 0.4999960064888 L 4.63071870803833 0.4999960064888 C 4.56440258026123 0.6905509829521179 4.500002384185791 0.912659764289856 4.500002384185791 1.152835965156555 C 4.500002384185791 1.428536057472229 4.275702476501465 1.652835965156555 4.000002384185791 1.652835965156555 Z" stroke="none"/>
      <path d="M 1.000002384185791 0.9999960660934448 L 1.000002384185791 1.152836084365845 L 4.000002384185791 1.152836084365845 C 4.000002384185791 1.100837707519531 4.002191543579102 1.049851417541504 4.006189823150635 0.9999960660934448 L 1.000002384185791 0.9999960660934448 M 2.384185791015625e-06 -4.053115844726562e-06 L 5.000002384185791 -4.053115844726562e-06 C 5.552282333374023 -4.053115844726562e-06 5.000002384185791 0.6005460023880005 5.000002384185791 1.152836084365845 C 5.000002384185791 1.705116033554077 4.552282333374023 2.152836084365845 4.000002384185791 2.152836084365845 L 1.000002384185791 2.152836084365845 C 0.4477124214172363 2.152836084365845 2.384185791015625e-06 1.705116033554077 2.384185791015625e-06 1.152836084365845 C 2.384185791015625e-06 0.6005460023880005 2.384185791015625e-06 -4.053115844726562e-06 2.384185791015625e-06 -4.053115844726562e-06 Z" stroke="none" fill="#75c3b5"/>
    </g>
  </g>
</svg>
