<svg xmlns="http://www.w3.org/2000/svg" xmlns:xlink="http://www.w3.org/1999/xlink" width="20" height="20" viewBox="0 0 20 20">
  <defs>
    <clipPath id="clip-Prancheta_2">
      <rect width="20" height="20"/>
    </clipPath>
  </defs>
  <g id="Prancheta_2" data-name="Prancheta – 2" clip-path="url(#clip-Prancheta_2)">
    <g id="Grupo_12579" data-name="Grupo 12579" transform="translate(-775.266 -265.213)">
      <g id="Grupo_12576" data-name="Grupo 12576" transform="translate(781.177 266)">
        <path id="Caminho_4816" data-name="Caminho 4816" d="M43.788,69.49V56.041c0-2.2.5-5.255,4.034-5.191a2.906,2.906,0,0,1,2.455,1.34,3.221,3.221,0,0,1,.615,1.479" transform="translate(-43.788 -50.849)" fill="none" stroke="#75c3b5" stroke-linecap="round" stroke-width="1.5"/>
        <g id="Grupo_12575" data-name="Grupo 12575" transform="translate(4.42 1.754) rotate(-3)">
          <path id="Caminho_4821" data-name="Caminho 4821" d="M0,0" transform="translate(3.227 17.413)" fill="none" stroke="#75c3b5" stroke-linecap="round" stroke-width="1"/>
          <line id="Linha_475" data-name="Linha 475" x2="0.034" y2="1.301" transform="matrix(0.966, -0.259, 0.259, 0.966, 2.665, 4.612)" fill="none" stroke="#75c3b5" stroke-linecap="round" stroke-width="1"/>
          <line id="Linha_479" data-name="Linha 479" x2="0.034" y2="1.301" transform="matrix(0.966, -0.259, 0.259, 0.966, 4.541, 3.898)" fill="none" stroke="#75c3b5" stroke-linecap="round" stroke-width="1"/>
          <path id="Caminho_4822" data-name="Caminho 4822" d="M0,0" transform="matrix(0.966, -0.259, 0.259, 0.966, 5.867, 16.454)" fill="none" stroke="#75c3b5" stroke-linecap="round" stroke-width="1"/>
          <line id="Linha_480" data-name="Linha 480" x2="0.034" y2="1.301" transform="matrix(0.966, -0.259, 0.259, 0.966, 4.207, 9.765)" fill="none" stroke="#75c3b5" stroke-linecap="round" stroke-width="1"/>
          <path id="Caminho_4825" data-name="Caminho 4825" d="M0,0" transform="matrix(0.966, -0.259, 0.259, 0.966, 3.428, 12.89)" fill="none" stroke="#75c3b5" stroke-linecap="round" stroke-width="1"/>
          <line id="Linha_482" data-name="Linha 482" x2="0.034" y2="1.301" transform="matrix(0.966, -0.259, 0.259, 0.966, 2.277, 7.357)" fill="none" stroke="#75c3b5" stroke-linecap="round" stroke-width="1"/>
          <line id="Linha_481" data-name="Linha 481" x2="0.031" y2="1.178" transform="matrix(0.966, -0.259, 0.259, 0.966, 6.506, 9.11)" fill="none" stroke="#75c3b5" stroke-linecap="round" stroke-width="1"/>
          <line id="Linha_485" data-name="Linha 485" x2="0.031" y2="1.178" transform="matrix(0.966, -0.259, 0.259, 0.966, 6.66, 6.028)" fill="none" stroke="#75c3b5" stroke-linecap="round" stroke-width="1"/>
          <line id="Linha_483" data-name="Linha 483" x2="0.031" y2="1.178" transform="matrix(0.966, -0.259, 0.259, 0.966, 4.439, 6.703)" fill="none" stroke="#75c3b5" stroke-linecap="round" stroke-width="1"/>
          <g id="Grupo_12577" data-name="Grupo 12577" transform="translate(0.09 1.497) rotate(-17)">
            <g id="Caminho_4818" data-name="Caminho 4818" transform="translate(0.001 0.013)" fill="#75c3b5">
              <path d="M 4.583442687988281 1.646833181381226 C 4.081525325775146 1.573826193809509 3.337332725524902 1.482375860214233 2.587740659713745 1.451360821723938 C 2.380570650100708 1.442790746688843 2.160650730133057 1.438440799713135 1.934110760688782 1.438440799713135 C 1.379708170890808 1.438440799713135 0.8723257184028625 1.463793039321899 0.5145897269248962 1.487962365150452 L 0.5077521800994873 1.342736959457397 C 0.6221614480018616 1.107702374458313 1.366796016693115 0.5113707780838013 2.353610754013062 0.5113707780838013 C 2.387250661849976 0.5113707780838013 2.421120643615723 0.5120607614517212 2.455220699310303 0.5134707689285278 C 3.54237699508667 0.5584546327590942 4.457159996032715 1.327187418937683 4.580747127532959 1.589555859565735 L 4.583442687988281 1.646833181381226 Z" stroke="none"/>
              <path d="M 2.353609323501587 0.01137328147888184 C 2.394089221954346 0.01137328147888184 2.434854507446289 0.01220273971557617 2.475890636444092 0.0139007568359375 C 3.876580715179443 0.07185077667236328 5.05919075012207 1.119850754737854 5.078520774841309 1.530430793762207 L 5.111830711364746 2.238140821456909 C 5.111830711364746 2.238140821456909 3.835160732269287 2.003400802612305 2.567070722579956 1.950930833816528 C 1.298981428146362 1.898460745811462 0.03947019577026367 2.028260707855225 0.03947067260742188 2.028260707855225 C 0.03947067260742188 2.028260707855225 0.02548074722290039 1.731140732765198 0.006150722503662109 1.320550799369812 C -0.0126032829284668 0.921999454498291 1.012372970581055 0.01137328147888184 2.353609323501587 0.01137328147888184 Z" stroke="none" fill="#75c3b5"/>
            </g>
            <g id="Caminho_4819" data-name="Caminho 4819" transform="translate(0.009 1.607)" fill="#fff">
              <path d="M 3.069567203521729 0.6166743040084839 C 2.917917251586914 0.6166743040084839 2.76177716255188 0.6134442687034607 2.605497121810913 0.6070742607116699 C 2.223737478256226 0.5914986133575439 1.885449528694153 0.5597456693649292 1.595184445381165 0.5199152231216431 C 1.734224200248718 0.5135315656661987 1.885405778884888 0.5098942518234253 2.04876708984375 0.5098942518234253 C 2.200417041778564 0.5098942518234253 2.356557130813599 0.5131242871284485 2.512837171554565 0.5194942951202393 C 2.894596815109253 0.5350699424743652 3.232884883880615 0.56682288646698 3.523149967193604 0.6066533327102661 C 3.384109973907471 0.6130369901657104 3.232928514480591 0.6166743040084839 3.069567203521729 0.6166743040084839 Z" stroke="none"/>
              <path d="M 2.048766851425171 0.009890556335449219 C 2.205499172210693 0.009890556335449219 2.367383718490601 0.01314902305603027 2.533217191696167 0.01991426944732666 C 3.945397138595581 0.07752430438995361 5.101807117462158 0.3675042986869812 5.116137027740479 0.667594313621521 C 5.130466938018799 0.967684268951416 3.997287273406982 1.164264321327209 2.585117101669312 1.106654286384583 C 1.172937154769897 1.049044251441956 0.01652717590332031 0.7590643167495728 0.002197265625 0.458974301815033 C -0.01044988632202148 0.1941243410110474 0.8708305358886719 0.009890556335449219 2.048766851425171 0.009890556335449219 Z" stroke="none" fill="#fff"/>
            </g>
            <g id="Caminho_4817" data-name="Caminho 4817" transform="translate(0.011 1.826)" fill="#75c3b5">
              <path d="M 3.074999094009399 0.6166635751724243 C 2.923039197921753 0.6166635751724243 2.766599178314209 0.6134335398674011 2.609999179840088 0.6070535778999329 C 2.227616548538208 0.5914813876152039 1.888790011405945 0.5597413778305054 1.598016262054443 0.5199187994003296 C 1.737292408943176 0.5135381817817688 1.888713121414185 0.5099035501480103 2.052339315414429 0.5099035501480103 C 2.204299211502075 0.5099035501480103 2.360739231109619 0.5131335854530334 2.51733922958374 0.5195135474205017 C 2.89972186088562 0.5350857377052307 3.238548278808594 0.5668257474899292 3.529322147369385 0.606648325920105 C 3.390046119689941 0.6130289435386658 3.238625288009644 0.6166635751724243 3.074999094009399 0.6166635751724243 Z" stroke="none"/>
              <path d="M 2.052339792251587 0.009899020195007324 C 2.209348201751709 0.009899020195007324 2.371553421020508 0.01315832138061523 2.537679195404053 0.01992356777191162 C 3.952339172363281 0.07754361629486084 5.110779285430908 0.3675135374069214 5.125139236450195 0.6676035523414612 C 5.13948917388916 0.967693567276001 4.004319667816162 1.16425359249115 2.589659214019775 1.106643557548523 C 1.174999237060547 1.049023509025574 0.01655912399291992 0.7590535879135132 0.002199172973632812 0.4589635729789734 C -0.01046562194824219 0.1941136121749878 0.8723282814025879 0.009899020195007324 2.052339792251587 0.009899020195007324 Z" stroke="none" fill="#75c3b5"/>
            </g>
          </g>
        </g>
      </g>
    </g>
  </g>
</svg>
