<svgz xmlns="http://www.w3.org/2000/svg" viewBox="0 0 20 22.22"><defs><style>.cls-1,.cls-3{fill:none;}.cls-2{fill:#75c3b5;}.cls-3{stroke:#75c3b5;stroke-linecap:round;}</style></defs><g id="Camada_2" data-name="Camada 2"><g id="Camada_1-2" data-name="Camada 1"><g id="Grupo_12700" data-name="Grupo 12700"><g id="Grupo_10594" data-name="Grupo 10594"><g id="Caminho_4263" data-name="Caminho 4263"><path class="cls-1" d="M10,.7c.38,0,8,8.41,8,12.83a8,8,0,1,1-16,0C2,9.11,9.62.7,10,.7Z"/><path class="cls-2" d="M10,2A41.13,41.13,0,0,0,6.4,6.41C4.21,9.46,3,12,3,13.53a7,7,0,1,0,14,0c0-1.55-1.21-4.07-3.39-7.12A42.57,42.57,0,0,0,10,2M10,.7c.39,0,8,8.41,8,12.83a8,8,0,1,1-16,0C2,9.11,9.62.7,10,.7Z"/></g><path id="Caminho_4264" data-name="Caminho 4264" class="cls-3" d="M6.76,9.92a5.87,5.87,0,0,0-1.32,2.91,4.18,4.18,0,0,0,.4,2.69"/></g><rect id="Retângulo_1395" data-name="Retângulo 1395" class="cls-1" width="20" height="22.22"/></g></g></g></svg>