<svg xmlns="http://www.w3.org/2000/svg" xmlns:xlink="http://www.w3.org/1999/xlink" width="48" height="48" viewBox="0 0 48 48">
  <defs>
    <filter id="Caminho_4672" x="-6.084" y="2.449" width="61.707" height="49.102" filterUnits="userSpaceOnUse">
      <feOffset dy="3" input="SourceAlpha"/>
      <feGaussianBlur stdDeviation="3" result="blur"/>
      <feFlood flood-opacity="0.161"/>
      <feComposite operator="in" in2="blur"/>
      <feComposite in="SourceGraphic"/>
    </filter>
    <filter id="Caminho_4671" x="3.027" y="10.237" width="43.475" height="17.258" filterUnits="userSpaceOnUse">
      <feOffset dy="1" input="SourceAlpha"/>
      <feGaussianBlur stdDeviation="0.5" result="blur-2"/>
      <feFlood flood-opacity="0.161"/>
      <feComposite operator="in" in2="blur-2"/>
      <feComposite in="SourceGraphic"/>
    </filter>
    <clipPath id="clip-Prancheta_6">
      <rect width="48" height="48"/>
    </clipPath>
  </defs>
  <g id="Prancheta_6" data-name="Prancheta – 6" clip-path="url(#clip-Prancheta_6)">
    <g id="Grupo_12558" data-name="Grupo 12558" transform="translate(-163.084 -519.551)">
      <g transform="matrix(1, 0, 0, 1, 163.08, 519.55)" filter="url(#Caminho_4672)">
        <g id="Caminho_4672-2" data-name="Caminho 4672" transform="translate(2.92 8.45)" fill="#de4747">
          <path d="M 37.33272933959961 30.10205459594727 L 6.37387752532959 30.10205459594727 C 3.410707712173462 30.10205459594727 0.9999977350234985 27.91102600097656 0.9999977350234985 25.21787452697754 L 0.9999977350234985 5.884175300598145 C 0.9999977350234985 3.191035509109497 3.410707712173462 1.00000536441803 6.37387752532959 1.00000536441803 L 37.33272933959961 1.00000536441803 C 40.2958984375 1.00000536441803 42.70661926269531 3.191035509109497 42.70661926269531 5.884175300598145 L 42.70661926269531 25.21787452697754 C 42.70661926269531 27.91102600097656 40.2958984375 30.10205459594727 37.33272933959961 30.10205459594727 Z" stroke="none"/>
          <path d="M 6.373878479003906 1.999996185302734 C 3.962108612060547 1.999996185302734 1.999996185302734 3.742435455322266 1.999996185302734 5.884176254272461 L 1.999996185302734 25.21787643432617 C 1.999996185302734 27.35961532592773 3.962108612060547 29.1020450592041 6.373878479003906 29.1020450592041 L 37.33272933959961 29.1020450592041 C 39.74449920654297 29.1020450592041 41.70661926269531 27.35961532592773 41.70661926269531 25.21787643432617 L 41.70661926269531 5.884176254272461 C 41.70661926269531 3.742435455322266 39.74449920654297 1.999996185302734 37.33272933959961 1.999996185302734 L 6.373878479003906 1.999996185302734 M 6.373878479003906 -3.814697265625e-06 L 37.33272933959961 -3.814697265625e-06 C 40.85292816162109 -3.814697265625e-06 43.70661926269531 2.634435653686523 43.70661926269531 5.884176254272461 L 43.70661926269531 25.21787643432617 C 43.70661926269531 28.46761512756348 40.85292816162109 31.1020450592041 37.33272933959961 31.1020450592041 L 6.373878479003906 31.1020450592041 C 2.853687286376953 31.1020450592041 -3.814697265625e-06 28.46761512756348 -3.814697265625e-06 25.21787643432617 L -3.814697265625e-06 5.884176254272461 C -3.814697265625e-06 2.634435653686523 2.853687286376953 -3.814697265625e-06 6.373878479003906 -3.814697265625e-06 Z" stroke="none" fill="#fff"/>
        </g>
      </g>
      <g transform="matrix(1, 0, 0, 1, 163.08, 519.55)" filter="url(#Caminho_4671)">
        <path id="Caminho_4671-2" data-name="Caminho 4671" d="M3054.09-350.726l-16.5,10.973a4.692,4.692,0,0,1-2.169.9,3.807,3.807,0,0,1-2.085-.686l-16.952-11.182" transform="translate(-3010.47 362.85)" fill="none" stroke="#fff" stroke-linecap="square" stroke-width="2"/>
      </g>
    </g>
  </g>
</svg>
