<svg xmlns="http://www.w3.org/2000/svg" viewBox="0 0 20.5 20"><defs><style>.cls-1,.cls-2{fill:none;stroke:#75c3b5;}.cls-1{stroke-linecap:round;}.cls-3{fill:#fff;}.cls-4{fill:#75c3b5;}</style></defs><g id="Camada_2" data-name="Camada 2"><g id="Camada_1-2" data-name="Camada 1"><g id="Grupo_10595" data-name="Grupo 10595"><g id="Grupo_10586" data-name="Grupo 10586"><path id="Caminho_4265" data-name="Caminho 4265" class="cls-1" d="M6.78,13.21s-.9,7.55-2.55,5.73S.13,11.77.55,7.92C1.08,3.37,5,4.81,7,5.65a15.53,15.53,0,0,1,1.89.76,6.71,6.71,0,0,0,2.28.53"/><path id="Caminho_4266" data-name="Caminho 4266" class="cls-2" d="M6.75,13.25s1.06-.36,1.14.22c.18,1.37,1.16,7,2.57,5.47,1.65-1.81,4.1-7.17,3.67-11-.7-6-7-2.18-7-2.18"/></g><g id="Retângulo_1027" data-name="Retângulo 1027"><path class="cls-3" d="M20.5,1V19a1,1,0,0,1-1,1h0a1,1,0,0,1-1-1V1a1,1,0,0,1,1-1h0A1,1,0,0,1,20.5,1Z"/><path class="cls-2" d="M20,1V19a.5.5,0,0,1-.5.5h0A.5.5,0,0,1,19,19V1a.5.5,0,0,1,.5-.5h0A.5.5,0,0,1,20,1Z"/></g><g id="Caminho_4267" data-name="Caminho 4267"><path class="cls-4" d="M18,4V1a.5.5,0,0,1,.5-.5h.65V4.63a1.88,1.88,0,0,0-.65-.13A.5.5,0,0,1,18,4Z"/><path class="cls-4" d="M18.65,1H18.5V4h.15V1m1-1V5c0,.55-.6,0-1.15,0a1,1,0,0,1-1-1V1a1,1,0,0,1,1-1Z"/></g></g></g></g></svg>