<svg xmlns="http://www.w3.org/2000/svg" viewBox="0 0 20 22.22"><defs><style>.cls-1,.cls-2,.cls-5{fill:none;}.cls-1,.cls-2{stroke:#75c3b5;stroke-linecap:round;}.cls-3{fill:#fff;}.cls-4{fill:#75c3b5;}</style></defs><g id="Camada_2" data-name="Camada 2"><g id="Camada_1-2" data-name="Camada 1"><g id="Grupo_12699" data-name="Grupo 12699"><g id="Grupo_12579" data-name="Grupo 12579"><g id="Grupo_12576" data-name="Grupo 12576"><path id="Caminho_4816" data-name="Caminho 4816" class="cls-1" d="M5.45,21.36V7.65C5.45,5.4,6,2.3,9.56,2.36a3,3,0,0,1,2.5,1.37,3.33,3.33,0,0,1,.63,1.5"/><g id="Grupo_12575" data-name="Grupo 12575"><line id="Linha_475" data-name="Linha 475" class="cls-2" x1="12.91" y1="8.7" x2="13.35" y2="9.95"/><line id="Linha_479" data-name="Linha 479" class="cls-2" x1="14.78" y1="7.87" x2="15.22" y2="9.12"/><line id="Linha_480" data-name="Linha 480" class="cls-2" x1="14.76" y1="13.86" x2="15.2" y2="15.11"/><line id="Linha_482" data-name="Linha 482" class="cls-2" x1="12.66" y1="11.51" x2="13.1" y2="12.76"/><line id="Linha_481" data-name="Linha 481" class="cls-2" x1="17.06" y1="13.07" x2="17.46" y2="14.2"/><line id="Linha_485" data-name="Linha 485" class="cls-2" x1="17.05" y1="9.93" x2="17.45" y2="11.06"/><line id="Linha_483" data-name="Linha 483" class="cls-2" x1="14.83" y1="10.73" x2="15.23" y2="11.86"/><g id="Grupo_12577" data-name="Grupo 12577"><g id="Caminho_4818" data-name="Caminho 4818"><path class="cls-3" d="M15.11,5.66c-.51.11-1.26.28-2,.51l-.63.22c-.54.19-1,.4-1.35.55l-.07-.15a2.37,2.37,0,0,1,1.49-1.45l.1,0a3.05,3.05,0,0,1,2.42.3Z"/><path class="cls-4" d="M12.39,4.87l.11,0a3.12,3.12,0,0,1,3,.54L15.8,6a21.46,21.46,0,0,0-2.53.61,19.45,19.45,0,0,0-2.4,1l-.27-.67C10.44,6.56,11.1,5.34,12.39,4.87Z"/></g><g id="Caminho_4819" data-name="Caminho 4819"><path class="cls-4" d="M13.85,6.73c-.14,0-.29.11-.45.15a8.18,8.18,0,0,1-1.09.29l.52-.2.45-.16c.41-.13.78-.22,1.09-.29Z"/><path class="cls-4" d="M12.66,6.5l.47-.16c1.37-.44,2.58-.56,2.7-.28s-.9.86-2.28,1.3-2.58.56-2.69.28S11.53,6.91,12.66,6.5Z"/></g><g id="Caminho_4817" data-name="Caminho 4817"><path class="cls-4" d="M13.93,6.94l-.44.15a10.82,10.82,0,0,1-1.1.29l.52-.21L13.36,7a9.6,9.6,0,0,1,1.1-.29Z"/><path class="cls-4" d="M12.74,6.7l.47-.16c1.37-.43,2.58-.56,2.7-.28s-.9.87-2.27,1.31-2.59.56-2.71.28S11.61,7.11,12.74,6.7Z"/></g></g></g></g></g><rect id="Retângulo_1394" data-name="Retângulo 1394" class="cls-5" width="20" height="22.22"/></g></g></g></svg>