<svg xmlns="http://www.w3.org/2000/svg" width="16" height="20.83" viewBox="0 0 16 20.83">
  <g id="Grupo_10594" data-name="Grupo 10594" transform="translate(-70 12.83)">
    <g id="Caminho_4263" data-name="Caminho 4263" transform="translate(70 -8)" fill="#fff">
      <path d="M 8 15.50000476837158 C 3.864490032196045 15.50000476837158 0.5 12.13551425933838 0.5 8.000004768371582 C 0.5 6.334154605865479 1.767330050468445 3.666384696960449 4.068530082702637 0.4881047010421753 C 5.727109909057617 -1.802610397338867 7.389386653900146 -3.623932838439941 8.001906394958496 -4.203287601470947 C 8.613335609436035 -3.626751661300659 10.27546405792236 -1.807293891906738 11.93686962127686 0.490114688873291 C 14.23458957672119 3.667414665222168 15.5 6.334474563598633 15.5 8.000004768371582 C 15.5 12.13551425933838 12.13551044464111 15.50000476837158 8 15.50000476837158 Z" stroke="none"/>
      <path d="M 8.004305839538574 -3.500238418579102 C 7.262787818908691 -2.73311710357666 5.850114822387695 -1.132306098937988 4.3997802734375 0.8834943771362305 C 2.207400321960449 3.930664539337158 1 6.458024501800537 1 8.000004768371582 C 1 11.85981464385986 4.140190124511719 14.9999942779541 8 14.9999942779541 C 11.85980987548828 14.9999942779541 15 11.85981464385986 15 8.000004768371582 C 15 6.458544731140137 13.79479026794434 3.932314872741699 11.606369972229 0.8866748809814453 C 10.20998382568359 -1.05669116973877 8.77104377746582 -2.70814037322998 8.004305839538574 -3.500238418579102 M 8.00053882598877 -4.830080986022949 C 8.390339851379395 -4.830080986022949 16 3.583612442016602 16 8.000004768371582 C 16 12.41827487945557 12.41827964782715 15.9999942779541 8 15.9999942779541 C 3.581720352172852 15.9999942779541 0 12.41827487945557 0 8.000004768371582 C 0 3.581724643707275 7.616209983825684 -4.822265625 8 -4.830075263977051 C 8.000164031982422 -4.830079078674316 8.000371932983398 -4.830080986022949 8.00053882598877 -4.830080986022949 Z" stroke="none" fill="#75c3b5"/>
    </g>
    <path id="Caminho_4264" data-name="Caminho 4264" d="M74.66-5.562a5.807,5.807,0,0,0-1.322,2.917,4.146,4.146,0,0,0,.4,2.681" transform="translate(0.103 1.953)" fill="none" stroke="#75c3b5" stroke-linecap="round" stroke-width="1"/>
  </g>
</svg>
