<svg xmlns="http://www.w3.org/2000/svg" width="62.195" height="67.002" viewBox="0 0 62.195 67.002"><defs><style>.a{fill:#fff;}</style></defs><g transform="translate(1.002 1)"><path class="a" d="M46.111,38.18h0c3.633,0,6.067.443,8.139,1.481a14.128,14.128,0,0,1,5.821,6.025c1.143,2,1.349,4.858.6,8.279a32.229,32.229,0,0,1-3.579,8.911,25.407,25.407,0,0,1-3.723,5.049c-1.47,1.486-2.817,2.239-4,2.239h-.079c-.087,0-.178,0-.27,0a29.806,29.806,0,0,0-3.618.334,37.793,37.793,0,0,1-4.926.421,13.9,13.9,0,0,1-4.152-.568A10.208,10.208,0,0,1,32.394,68.1a29.707,29.707,0,0,1-6.749-9.678c-1.314-3.056-2.59-7.594-1.207-11.859a9.876,9.876,0,0,1,6.47-6.787c2.91-1.029,6.617-1.225,10.91-1.451l.41-.022C43.787,38.219,45.022,38.18,46.111,38.18ZM49.36,68.164c.224,0,1.072-.119,2.583-1.646a23.751,23.751,0,0,0,3.414-4.645,30.183,30.183,0,0,0,3.356-8.338c.645-2.927.514-5.3-.378-6.855a12.094,12.094,0,0,0-4.981-5.231c-1.775-.89-3.941-1.269-7.243-1.269h0c-1.053,0-2.254.038-3.778.118l-.41.022c-4.138.218-7.711.407-10.348,1.339a7.918,7.918,0,0,0-5.235,5.518c-.658,2.027-.993,5.486,1.142,10.451a27.606,27.606,0,0,0,6.265,9,9.34,9.34,0,0,0,6.72,2.289,36.271,36.271,0,0,0,4.667-.4,31.13,31.13,0,0,1,3.876-.351c.111,0,.221,0,.327,0Z" transform="translate(-24.842 -4.912)"/><path class="a" d="M899.277,271.969h-15.2a1,1,0,0,1-.995-.9c-.01-.1-.971-9.743-1.284-20.162a146.26,146.26,0,0,1,.218-15.471c.427-5.374,1.27-8.885,2.577-10.735a25.534,25.534,0,0,0,4.23-10.939,27.022,27.022,0,0,0,.187-7.6A1,1,0,0,1,890,205h4.043a1,1,0,0,1,.978,1.207,22.491,22.491,0,0,0-.21,5.486,33.457,33.457,0,0,0,3.778,13.118c2.363,4.534,3.36,13.718,2.964,27.3-.292,10.028-1.273,18.878-1.283,18.967A1,1,0,0,1,899.277,271.969Zm-14.288-2h13.387c.252-2.479.943-9.815,1.179-17.927.38-13.041-.568-22.136-2.739-26.3a36.727,36.727,0,0,1-2.975-7.677,33.7,33.7,0,0,1-1.03-6.318,27.645,27.645,0,0,1,.077-4.74H891.12a31.621,31.621,0,0,1-.318,7.065,30.834,30.834,0,0,1-1.484,5.828,25.419,25.419,0,0,1-3.089,5.958c-1.343,1.9-1.947,6.345-2.217,9.739a144.315,144.315,0,0,0-.212,15.253C884.056,259.359,884.747,267.347,884.989,269.969Z" transform="translate(-840.447 -206.005)"/><path class="a" d="M.016,12.427a1,1,0,0,1-1-.961,33.01,33.01,0,0,1,.536-7.28A11.067,11.067,0,0,1,1.98-.694,1,1,0,0,1,3.394-.72,1,1,0,0,1,3.42.694,9.265,9.265,0,0,0,1.5,4.642a31.5,31.5,0,0,0-.485,6.746,1,1,0,0,1-.961,1.038Z" transform="translate(11.212 42.68) rotate(-109)"/><path class="a" d="M.016,11.612a1,1,0,0,1-1-.959,28.659,28.659,0,0,1,.54-6.8A10.171,10.171,0,0,1,2.007-.72L3.394.72A8.332,8.332,0,0,0,1.5,4.344a27.057,27.057,0,0,0-.481,6.227,1,1,0,0,1-.958,1.041Z" transform="translate(18.114 29.269) rotate(11)"/></g></svg>