<svg xmlns="http://www.w3.org/2000/svg" viewBox="0 0 20 22.22"><defs><style>.cls-1,.cls-3{fill:none;}.cls-2{fill:#75c3b5;}.cls-3{stroke:#75c3b5;stroke-linecap:round;}.cls-4{fill:#fff;}</style></defs><g id="Camada_2" data-name="Camada 2"><g id="Camada_1-2" data-name="Camada 1"><g id="Grupo_12701" data-name="Grupo 12701"><g id="Grupo_10583" data-name="Grupo 10583"><g id="Caminho_4889" data-name="Caminho 4889"><path class="cls-1" d="M5.46,1.14c2.49,0,4.5,3.13,4.5,7s-2,7-4.5,7S1,12,1,8.14,3,1.14,5.46,1.14Z"/><path class="cls-2" d="M5.46,2.14A3.07,3.07,0,0,0,3.12,3.73,8.22,8.22,0,0,0,2,8.14a8.22,8.22,0,0,0,1.16,4.41,3.07,3.07,0,0,0,2.34,1.59A3.05,3.05,0,0,0,7.8,12.55,8.22,8.22,0,0,0,9,8.14,8.22,8.22,0,0,0,7.8,3.73,3.05,3.05,0,0,0,5.46,2.14m0-1c2.49,0,4.5,3.14,4.5,7s-2,7-4.5,7S1,12,1,8.14,3,1.14,5.46,1.14Z"/></g><g id="Elipse_277" data-name="Elipse 277"><ellipse class="cls-1" cx="5.46" cy="8.14" rx="1.5" ry="3"/><ellipse class="cls-3" cx="5.46" cy="8.14" rx="1" ry="2.5"/></g><path id="Caminho_4262" data-name="Caminho 4262" class="cls-3" d="M5.5,1.63l10.7.06a3.43,3.43,0,0,1,2,1A4.77,4.77,0,0,1,19,5v14.4a2.77,2.77,0,0,1-.22,1.3,1.1,1.1,0,0,1-.89.4l-1.24-1-1.27,1-1.06-1-1.32,1-1-1-1.41,1a2,2,0,0,1-1.14-.4,1.64,1.64,0,0,1-.35-1.07V10.7"/><g id="Retângulo_1022" data-name="Retângulo 1022"><path class="cls-4" d="M11.46,11.14h1a.5.5,0,0,1,.5.5h0a.5.5,0,0,1-.5.5h-1a.5.5,0,0,1-.5-.5h0A.5.5,0,0,1,11.46,11.14Z"/><polygon class="cls-3" points="11.46 11.64 12.46 11.64 12.46 11.64 11.46 11.64"/></g><g id="Retângulo_1023" data-name="Retângulo 1023"><path class="cls-4" d="M14.46,11.14h1a.5.5,0,0,1,.5.5h0a.5.5,0,0,1-.5.5h-1a.5.5,0,0,1-.5-.5h0A.5.5,0,0,1,14.46,11.14Z"/><polygon class="cls-3" points="14.46 11.64 15.46 11.64 15.46 11.64 14.46 11.64"/></g><g id="Retângulo_1024" data-name="Retângulo 1024"><path class="cls-4" d="M17.46,11.14h1a.5.5,0,0,1,.5.5h0a.5.5,0,0,1-.5.5h-1a.5.5,0,0,1-.5-.5h0A.5.5,0,0,1,17.46,11.14Z"/><polygon class="cls-3" points="17.46 11.64 18.46 11.64 18.46 11.64 17.46 11.64"/></g></g><rect id="Retângulo_1396" data-name="Retângulo 1396" class="cls-1" width="20" height="22.22"/></g></g></g></svg>