<svg xmlns="http://www.w3.org/2000/svg" xmlns:xlink="http://www.w3.org/1999/xlink" width="53" height="53" viewBox="0 0 53 53">
  <defs>
    <filter id="Retângulo_984" x="0" y="0" width="53" height="53" filterUnits="userSpaceOnUse">
      <feOffset dy="3" input="SourceAlpha"/>
      <feGaussianBlur stdDeviation="3" result="blur"/>
      <feFlood flood-opacity="0.149"/>
      <feComposite operator="in" in2="blur"/>
      <feComposite in="SourceGraphic"/>
    </filter>
    <filter id="Caminho_4174" x="3.921" y="8.696" width="45.831" height="39.335" filterUnits="userSpaceOnUse">
      <feOffset dy="3" input="SourceAlpha"/>
      <feGaussianBlur stdDeviation="3" result="blur-2"/>
      <feFlood flood-opacity="0.396"/>
      <feComposite operator="in" in2="blur-2"/>
      <feComposite in="SourceGraphic"/>
    </filter>
    <filter id="Polígono_1" x="26.687" y="6.309" width="21.889" height="21.889" filterUnits="userSpaceOnUse">
      <feOffset dy="3" input="SourceAlpha"/>
      <feGaussianBlur stdDeviation="3" result="blur-3"/>
      <feFlood flood-opacity="0.396"/>
      <feComposite operator="in" in2="blur-3"/>
      <feComposite in="SourceGraphic"/>
    </filter>
  </defs>
  <g id="Grupo_10484" data-name="Grupo 10484" transform="translate(-836 -657.588)">
    <g transform="matrix(1, 0, 0, 1, 836, 657.59)" filter="url(#Retângulo_984)">
      <g id="Retângulo_984-2" data-name="Retângulo 984" transform="translate(9 6)" fill="#41bbe9" stroke="#fff" stroke-width="1">
        <rect width="35" height="35" rx="7" stroke="none"/>
        <rect x="0.5" y="0.5" width="34" height="34" rx="6.5" fill="none"/>
      </g>
    </g>
    <g transform="matrix(1, 0, 0, 1, 836, 657.59)" filter="url(#Caminho_4174)">
      <path id="Caminho_4174-2" data-name="Caminho 4174" d="M0,16.722l3.312-6.288,4.44,2.914,5.918-8.7,4.8,4.938L24.356,0" transform="matrix(0.98, -0.17, 0.17, 0.98, 13.4, 19.26)" fill="none" stroke="#fff" stroke-width="1"/>
    </g>
    <g transform="matrix(1, 0, 0, 1, 836, 657.59)" filter="url(#Polígono_1)">
      <g id="Polígono_1-2" data-name="Polígono 1" transform="translate(36.55 12.31) rotate(16)" fill="#fff">
        <path d="M 2.335362911224365 2.644377946853638 L 0.8090128898620605 2.644377946853638 L 1.572187900543213 1.118027925491333 L 2.335362911224365 2.644377946853638 Z" stroke="none"/>
        <path d="M 1.572187900543213 -2.145767211914062e-06 L 3.144377946853638 3.144377946853638 L -2.145767211914062e-06 3.144377946853638 L 1.572187900543213 -2.145767211914062e-06 Z" stroke="none" fill="#fff"/>
      </g>
    </g>
  </g>
</svg>
