<svg xmlns="http://www.w3.org/2000/svg" xmlns:xlink="http://www.w3.org/1999/xlink" width="48" height="48" viewBox="0 0 48 48">
  <defs>
    <filter id="Caminho_4165" x="-8.236" y="4.595" width="64.472" height="46.598" filterUnits="userSpaceOnUse">
      <feOffset dy="3" input="SourceAlpha"/>
      <feGaussianBlur stdDeviation="3" result="blur"/>
      <feFlood flood-opacity="0.149"/>
      <feComposite operator="in" in2="blur"/>
      <feComposite in="SourceGraphic"/>
    </filter>
    <filter id="Elipse_250" x="7.764" y="12.193" width="33" height="33" filterUnits="userSpaceOnUse">
      <feOffset dy="3" input="SourceAlpha"/>
      <feGaussianBlur stdDeviation="3" result="blur-2"/>
      <feFlood flood-opacity="0.4"/>
      <feComposite operator="in" in2="blur-2"/>
      <feComposite in="SourceGraphic"/>
    </filter>
    <filter id="Caminho_4166" x="26.412" y="2.807" width="23.897" height="20.681" filterUnits="userSpaceOnUse">
      <feOffset dy="3" input="SourceAlpha"/>
      <feGaussianBlur stdDeviation="3" result="blur-3"/>
      <feFlood flood-opacity="0.4"/>
      <feComposite operator="in" in2="blur-3"/>
      <feComposite in="SourceGraphic"/>
    </filter>
    <clipPath id="clip-Prancheta_4">
      <rect width="48" height="48"/>
    </clipPath>
  </defs>
  <g id="Prancheta_4" data-name="Prancheta – 4" clip-path="url(#clip-Prancheta_4)">
    <g id="Grupo_12555" data-name="Grupo 12555" transform="translate(0.764 8.807)">
      <g transform="matrix(1, 0, 0, 1, -0.76, -8.81)" filter="url(#Caminho_4165)">
        <g id="Caminho_4165-2" data-name="Caminho 4165" transform="translate(0.76 10.59)" fill="#92ce78">
          <path d="M 40.21588134765625 28.09795951843262 L 6.255799770355225 28.09795951843262 C 3.082039833068848 28.09795951843262 0.4999998509883881 25.51591873168945 0.4999998509883881 22.34215927124023 L 0.4999998509883881 6.255798816680908 C 0.4999998509883881 3.082038879394531 3.082039833068848 0.4999988079071045 6.255799770355225 0.4999988079071045 L 40.21588134765625 0.4999988079071045 C 43.38964080810547 0.4999988079071045 45.9716796875 3.082038879394531 45.9716796875 6.255798816680908 L 45.9716796875 22.34215927124023 C 45.9716796875 25.51591873168945 43.38964080810547 28.09795951843262 40.21588134765625 28.09795951843262 Z" stroke="none"/>
          <path d="M 6.25579833984375 0.9999980926513672 C 3.357738494873047 0.9999980926513672 1 3.357738494873047 1 6.25579833984375 L 1 22.34214782714844 C 1 25.24020957946777 3.357738494873047 27.59795951843262 6.25579833984375 27.59795951843262 L 40.21588134765625 27.59795951843262 C 43.11394119262695 27.59795951843262 45.4716796875 25.24020957946777 45.4716796875 22.34214782714844 L 45.4716796875 6.25579833984375 C 45.4716796875 3.357738494873047 43.11394119262695 0.9999980926513672 40.21588134765625 0.9999980926513672 L 6.25579833984375 0.9999980926513672 M 6.25579833984375 -1.9073486328125e-06 L 40.21588134765625 -1.9073486328125e-06 C 43.67086029052734 -1.9073486328125e-06 46.4716796875 2.800819396972656 46.4716796875 6.25579833984375 L 46.4716796875 22.34214782714844 C 46.4716796875 25.79713821411133 43.67086029052734 28.59795951843262 40.21588134765625 28.59795951843262 L 6.25579833984375 28.59795951843262 C 2.800819396972656 28.59795951843262 0 25.79713821411133 0 22.34214782714844 L 0 6.25579833984375 C 0 2.800819396972656 2.800819396972656 -1.9073486328125e-06 6.25579833984375 -1.9073486328125e-06 Z" stroke="none" fill="#fff"/>
        </g>
      </g>
      <g transform="matrix(1, 0, 0, 1, -0.76, -8.81)" filter="url(#Elipse_250)">
        <g id="Elipse_250-2" data-name="Elipse 250" transform="translate(16.76 18.19)" fill="none" stroke="#fff" stroke-width="1">
          <circle cx="7.5" cy="7.5" r="7.5" stroke="none"/>
          <circle cx="7.5" cy="7.5" r="7" fill="none"/>
        </g>
      </g>
      <g transform="matrix(1, 0, 0, 1, -0.76, -8.81)" filter="url(#Caminho_4166)">
        <g id="Caminho_4166-2" data-name="Caminho 4166" transform="translate(35.64 8.81)" fill="none">
          <path d="M1.316,0H4A1.341,1.341,0,0,1,5.338,1.341c0,.74.74,1.341,0,1.341H.151c-.74,0-.176-.6-.176-1.341A1.341,1.341,0,0,1,1.316,0Z" stroke="none"/>
          <path d="M 1.316032409667969 0.9999991655349731 C 1.128262519836426 0.9999991655349731 0.9755024909973145 1.152759194374084 0.9755024909973145 1.340529203414917 C 0.9755024909973145 1.459931373596191 0.9668979644775391 1.573700785636902 0.9529829025268555 1.681059122085571 L 4.364333152770996 1.681059122085571 C 4.347590446472168 1.57305645942688 4.33762264251709 1.459304451942444 4.33762264251709 1.340529203414917 C 4.33762264251709 1.152759194374084 4.184862613677979 0.9999991655349731 3.997092485427856 0.9999991655349731 L 1.316032409667969 0.9999991655349731 M 1.316032409667969 -7.152557373046875e-07 L 3.997092485427856 -7.152557373046875e-07 C 4.737442493438721 -7.152557373046875e-07 5.33762264251709 0.6001791954040527 5.33762264251709 1.340529203414917 C 5.33762264251709 2.080879211425781 6.077972412109375 2.681059122085571 5.33762264251709 2.681059122085571 L 0.151362419128418 2.681059122085571 C -0.5889873504638672 2.681059122085571 -0.02449750900268555 2.080879211425781 -0.02449750900268555 1.340529203414917 C -0.02449750900268555 0.6001791954040527 0.5756826400756836 -7.152557373046875e-07 1.316032409667969 -7.152557373046875e-07 Z" stroke="none" fill="#fff"/>
        </g>
      </g>
    </g>
  </g>
</svg>
